<svg id="Layer_1" data-name="Layer 1" xmlns="http://www.w3.org/2000/svg" viewBox="0 0 60 60"><defs><style>.cls-1{fill:#b8c633;}.cls-2{fill:#fff;fill-rule:evenodd;}</style></defs><title>Icons</title><circle class="cls-1" cx="29.76" cy="29.85" r="27.85"/><path class="cls-2" d="M33.49,21.93c.74,0,1.49,0,2.24,0H36V18.05c-.4,0-.81-.1-1.23-.12-.76,0-1.53-.07-2.29-.05a5.62,5.62,0,0,0-3.24,1,4.85,4.85,0,0,0-1.95,3.23,11.28,11.28,0,0,0-.14,1.66c0,.87,0,1.74,0,2.61v.33H23.48V31h3.69V41.92h4.5V31.06h3.67l.57-4.35H31.64s0-2.14,0-3.08C31.72,22.36,32.47,22,33.49,21.93Z"/></svg>