<svg id="Layer_1" data-name="Layer 1" xmlns="http://www.w3.org/2000/svg" viewBox="0 0 60 60"><defs><style>.cls-1{fill:#b8c633;}</style></defs><title>Icons</title><path class="cls-1" d="M53.29,35.87H49.73V19.48a2.14,2.14,0,0,0,0-.25.28.28,0,0,0,0-.06,1.74,1.74,0,0,0-.14-.4l0-.08a1.88,1.88,0,0,0-.23-.32l0,0L32.81,1.18h0A1.67,1.67,0,0,0,32.46.9l-.09,0A1.51,1.51,0,0,0,32,.71h0a1.76,1.76,0,0,0-.35,0H16.26A5.36,5.36,0,0,0,10.91,6v16.1a6.78,6.78,0,0,1,3.33,1.09V6a2,2,0,0,1,2-2H30V15.8a5.36,5.36,0,0,0,5.35,5.35H46.41V35.87H17.27a6.8,6.8,0,0,1-2.62,4.42v4.2A6.82,6.82,0,0,1,17.36,50v4.77H53.29a4.18,4.18,0,0,0,4.44-3.86V39.74a4.18,4.18,0,0,0-4.44-3.87m-18-18.06a2,2,0,0,1-2-2V6.47L44.17,17.81ZM47.73,48.91a3.33,3.33,0,1,1,3.33-3.33,3.33,3.33,0,0,1-3.33,3.33M10.51,25.43H5.81a3.53,3.53,0,0,0-3.53,3.52v5.88A3.52,3.52,0,0,0,5,38.25v8.28A3.53,3.53,0,0,0,2.28,50v5.87a3.53,3.53,0,0,0,3.53,3.52h4.7A3.53,3.53,0,0,0,14,55.83V50a3.52,3.52,0,0,0-2.72-3.43V38.25A3.52,3.52,0,0,0,14,34.83V28.95a3.53,3.53,0,0,0-3.52-3.52m1.18,9.4A1.17,1.17,0,0,1,10.77,36L9,36.39v12l1.81.43A1.16,1.16,0,0,1,11.68,50v5.87A1.17,1.17,0,0,1,10.51,57H5.81a1.18,1.18,0,0,1-1.18-1.17V50a1.17,1.17,0,0,1,.91-1.13l1.81-.43v-12L5.54,36a1.17,1.17,0,0,1-.91-1.13V28.95a1.17,1.17,0,0,1,1.18-1.17h4.7a1.17,1.17,0,0,1,1.18,1.17Zm6.15,24.71H49.44a3.6,3.6,0,0,0,3.23-2h-34a6.84,6.84,0,0,1-.88,2"/></svg>