<svg id="Layer_1" data-name="Layer 1" xmlns="http://www.w3.org/2000/svg" viewBox="0 0 60 60"><defs><style>.cls-1{fill:#c0c831;}</style></defs><title>Icons</title><path class="cls-1" d="M15.15,24.15c.34.76-.64.26-.64.66a.39.39,0,0,0,.26.1c.31.12,2-.16,1.83-.42C16.34,24,15.21,24.29,15.15,24.15Z"/><path class="cls-1" d="M35.84,7.38c.52,0,1.43-.94.56-.84-.64.08-1.95-.18-2.34.2.26,0,.36.14.62.12C34.74,7.42,35.29,7.64,35.84,7.38Z"/><path class="cls-1" d="M38,11.62c.23-.14,1-1,.43-1.14a.85.85,0,0,0-1.09.94C36.83,12,37.59,11.82,38,11.62Z"/><path class="cls-1" d="M14.8,23.93c-.24-.8-3.82-1.57-3.37-.36-.23-.72,1.47-.3,1.68-.16s.14.76.49.76C13.72,24.17,14.88,24.15,14.8,23.93Z"/><path class="cls-1" d="M38.8,10.37c-.06-.12.85,1,.15,1,0,0,0,.06,0,.1s-.38.32-.36.3a2.35,2.35,0,0,1,.46.12,3.28,3.28,0,0,0-.66.46c.34,0,2.26-.3,2-.58,0,0,.58-.36,0-.48-.28-.06-.3-.32-.54-.66a6.2,6.2,0,0,1-.36-.7c.1.16-.11-.6-.26-.58a5.12,5.12,0,0,0,.3-.42c-.38.22-1.47.58-1,1.14,0,0-.28.12-.16.18S38.59,10.47,38.8,10.37Z"/><path class="cls-1" d="M30,.33a29.51,29.51,0,0,0,0,59,29.51,29.51,0,0,0,0-59Zm14.1,17a6.87,6.87,0,0,0-4,.82c-.25.18-1.62-.06-.9-.54.18-.12,1.71-.5,1.57-.9-.28-.9,1.11-.86,1-1.55,0,0,1.61-.66,1.87-.66s1.23,1.37,1.74,1.53c1,.34-.21,1-.77.94,0,0,.9.48.9.52,0-.42.34-.58.56-.88s-.24-.42,0-.58.53.14.45.28c.25-.52-2.07-1.18-1.67-2.41-.15.4,1,1.12,1.28,1.29.61.4.43.48.7,1,.13.26.84,1.29,1,1.31.93.08.12-1,.13-1.33,0,.12.85-.42,1,.28a2.41,2.41,0,0,0,.28.74s.64.54.64.4c0,.3,1.05,0,1.74.06.17.3.33.56.47.86-.16.52-.5,1.41-.88,1.12s-1.31.18-1.87,0c-.36-.16-2.58-1.26-2.45,0s-1.46-.38-2-.54-1.27-.14-1-.76C44.18,18.06,43.89,17.38,44.1,17.38Zm1.23-7.23s0,0,0,0c.2.18.4.34.6.5-.74.1-1.63.16-1.76.22.11-.2.92-.6,1.08-.4C45.24,10.31,45.1,10.25,45.33,10.15Zm9.29,16.39a6.25,6.25,0,0,0-.53-.7c-.32-.32-.67-.6-.67-1.12,0,0-.44-1.08-.48-1.17A17.75,17.75,0,0,0,51.66,21a2.94,2.94,0,0,1,1.77,2,3.37,3.37,0,0,0,1,1.59C54.53,25.23,54.54,25.9,54.62,26.54Zm-4.91-12a13.83,13.83,0,0,1,.89,1.08,1,1,0,0,1-1.26-.3A5.85,5.85,0,0,1,49.72,14.57ZM51.9,41.68c-.15.28-.3.58-.48.86C51.56,42.08,51.5,42,51.9,41.68Zm.4-1.53c.12-.58,0-.58.62-1.1l.35-.26c-.27.68-.57,1.34-.88,2A1.64,1.64,0,0,1,52.3,40.15Zm1.89-7a3.74,3.74,0,0,1,.52-.66,25.28,25.28,0,0,1-.55,3.43A3.37,3.37,0,0,1,54.19,33.11ZM5,29.83a25.25,25.25,0,0,1,.56-5.22c.63.48,1.73,1.33,2.41,1.1s.84.1,1.25.6c.27.28.89.24,1.24.44.62.36.72,1.25,1.42,1.79.29.2.47.1.79.38.66.6.2-.58.6-.48,2.36.56-1.31,3.79-.22,4.6-1,.66.38,2.27.84,3s.59,1.55,1.13,1.95c.84.62,1.61.88,1.8,1.93a20.64,20.64,0,0,1,.44,4.72c0,.7-.26,4.12.68,4.14-.06-.14-.1-.3-.16-.42H18a3.26,3.26,0,0,1,.15,1c-.82-.24.09,1.2.05,1.29-.27.48.4,1.37,1.25,2A25.24,25.24,0,0,1,5,29.83ZM30,55.05a24.63,24.63,0,0,1-8.53-1.61.84.84,0,0,0,.74-.38C21,52.83,20,51.58,21,50.54c-.85-.32-.6-1.55,0-2-.42,0-.63-.18-.63-.62.46.22.51,0,.82-.22s-.08-.38.6-.58c1.13-.28.68-1.39,0-1.71.29-.06.94.42,1.26.1.5-.52.48-1.08.78-1.67.18-.34.81-.5.69-1.27s.41-1,1.08-1.41c1.48-.84,1.7-1.69,1.73-3.47,0-1.24,1.85-2.25,1.06-3.57-.56-.1-2.53-2-3.2-1.06.42-.58-.93-1-1.31-.6a5.39,5.39,0,0,0-.73-1.27c-.47-1-.41-1.45-1.65-1.47-1.05-.08-1.61-1.45-2.39-1.89a3.11,3.11,0,0,0,.38-.16c-.76.24-2.39.48-2.84-.5-.27.34-.63.68-.51,1.14a.72.72,0,0,1,.14-1,1.78,1.78,0,0,0-.08-.2c-.4.24-1.49.46-1.49,1,0,1-1.16,0-1.78.3-.92.5-.84-1.33-.75-1.77.31-1.11-1.6-1.12-1.67-.9a11.83,11.83,0,0,1,.87-2.13c-1.19-.28-.8.38-1.41.86-.2.14-1.63.44-1.57.16s-.56-.94-.57-1.33.46-1,.47-1.59,1.63-1.91,2.26-1.29c.3.34.7-.36,1-.3a9,9,0,0,1,1.37.06c.64.58,0,1.45.83,1.91.6-1.08-.27-1.85.69-2.83.39-.38,1-.54,1.39-.92a4.57,4.57,0,0,0,.63-1.16,6.63,6.63,0,0,0,.93-.92c.34-.44,1.09-.22,1.41-.6.09-.08-.11-.62.38-.8a13.25,13.25,0,0,1,1.74-.62c-.72.36-.58.86.12.44a8.66,8.66,0,0,1,1.53-.66,3,3,0,0,1-.05-.38c-.22.22-.8.66-1.17.42s0-.82.23-1.2a7.59,7.59,0,0,0-1.84.52,3,3,0,0,1,2.08-1,11.8,11.8,0,0,0,2.4-.46,12.89,12.89,0,0,0-1.28,1.38c.48,0,.91-.06,1.19.22l.24-.16c0,.1.1.24.13.34a1,1,0,0,0,.43-1.08c-.1,0-.86-.1-.72-.36s.85-1.28,0-1.67a2.21,2.21,0,0,1-.66-2.07c-.5,1-2.28.72-1.25-.1-.72-.18-.76-.46-1.53-.56s-.75,1-1.47,1.43c.93-.26-.86,1.35-.78,1.28-.4.34-.44.08-.61.84a1.07,1.07,0,0,1-.63.58,3.47,3.47,0,0,0-.26-.62,1.69,1.69,0,0,1,.32,0,.75.75,0,0,1,0-.2H17.2c.14-.2.14-.48.33-.7-1,.18-1.36-.94-2.3-.74a.35.35,0,0,0,0-.12,25.21,25.21,0,0,1,3.3-2h0A1.62,1.62,0,0,1,20,7.44.73.73,0,0,0,19.67,7a18.73,18.73,0,0,1,2.27-.86,2.27,2.27,0,0,0,.6-.2l.23-.06c.55,0-.25.56-.45.64s-.18.24-.54.38-.52-.24-.91.2c.36.24.81.08,1.25.24-.06,0,1.39,1.08,1.39.78s-.38-.54-.34-.66.7.34.78.4c.54-.48-.21-1.12.06-1.3s.61.78.89.3c.11-.16.59-.3.79-.38-.35-.46-.88-.38-1.14-.72,0,0,.27-.26.18-.5a26.3,26.3,0,0,1,3.8-.44.89.89,0,0,0,.24.12c-.43-.08-.71,0-.74.44.21-.06.41-.06.61-.12a2.07,2.07,0,0,0-.84,2.53c.2.46.46.94,1.06,1,.77,0,.76-.4,1.26-.92a5.58,5.58,0,0,1,2.44-1.3,10.71,10.71,0,0,1,2.88-1.2,24.52,24.52,0,0,1,7.17,2.91c-.07.38,0,1,.18,1.1s1.2,0,1.32-.22c0,0,.06.06.1.08.14.38.56,1.61-.21,1.1.11.06,0-.66,0-.72-1.34.08.12,1.35-1,1.51-.84.1-.62.82-1.44,1,.12,0-1,.68-1.2.56.05.16.07.36.05.32-.34-.36-1.45-.2-.34.48.91.58.34,1.71-.7,1.46-.62-.12-1.14-.18-1.42.24-.15.22,0,2.15-.12,2.25.53-.26,1.12.16.9.68a15.13,15.13,0,0,1-1.31,1.69c-.24.4-.24.7-.72,1.1-.26.26-.74.34-.9.8s-1,1.28-1,2c0,.46.26.78.26,1.33a1.93,1.93,0,0,1-.35,1c-.29.22.19.34.09.66-.24.88,1.05.8,1.05,1.55,0,.94,1.27,1.46,1.93,1.95A17.18,17.18,0,0,1,39.94,30c1-.46,1.82-1,2.49.2.16.28.87-.08,1.2.22s.09.7.1,1.14c0,.24-.31.48-.26.74.1.5.74,1,.93,1.47a5.93,5.93,0,0,1,.68,2.33c-.06,1-.81,1.83-.58,2.93s.91,1.73,1,2.81.79,1.69,1.05,2.55a5,5,0,0,1,.13.94c0,.48.67,0,.89.08,1,.34,2.29-.56,2.87-1.34l.54-.64A24.85,24.85,0,0,1,30,55.05Z"/></svg>