<svg id="Layer_1" data-name="Layer 1" xmlns="http://www.w3.org/2000/svg" viewBox="0 0 60 60"><defs><style>.cls-1{fill:#b8c633;}</style></defs><title>Icons</title><path class="cls-1" d="M50.71,30.67V25.44a1.78,1.78,0,0,0-.53-1.27L36.85,11.11h0a1.78,1.78,0,0,0-1.25-.51H17.64a5.06,5.06,0,0,0-5.06,5.05V32.78L.5,25V56a3.57,3.57,0,0,0,3.57,3.57H55.92A3.57,3.57,0,0,0,59.5,56V25Zm-13.33-14,7.16,7H38.86a1.48,1.48,0,0,1-1.48-1.48ZM7,56.54A1.79,1.79,0,0,1,4.39,54L18,40l3.07,2Zm9.21-21.47V15.65a1.47,1.47,0,0,1,1.48-1.47H33.81v8a5.05,5.05,0,0,0,5.05,5.05h8.28V33L30,43.92ZM55.57,56.57a1.79,1.79,0,0,1-2.53,0L38.9,41.94,42,40,55.61,54a1.79,1.79,0,0,1,0,2.53M2.43,22.25,9.9,27V15.65c0-.22,0-.43,0-.65l-7.5,4.8-.53.34A3.57,3.57,0,0,0,1.1,21l-.16.27,1,.63ZM39.35,8.56,52.67,21.61a5.32,5.32,0,0,1,1.51,2.8l3.38-2.16a3.41,3.41,0,0,0,.52-.34l1-.62L58.9,21a3.76,3.76,0,0,0-.82-.89l-.51-.33L30,2.16,22.4,7H35.59a5.33,5.33,0,0,1,3.76,1.54M20.62,24.46h9.24a.45.45,0,1,0,0-.9H20.62a.45.45,0,0,0,0,.9m0,5.36H38.06a.45.45,0,1,0,0-.89H20.62a.45.45,0,1,0,0,.89m19.82,4H20.62a.45.45,0,1,0,0,.89H40.44a.45.45,0,0,0,0-.89"/></svg>