<svg id="Layer_1" data-name="Layer 1" xmlns="http://www.w3.org/2000/svg" viewBox="0 0 60 60"><defs><style>.cls-1{fill:#b8c633;}</style></defs><title>Icons</title><path class="cls-1" d="M41.26,11.21H18.75a7.19,7.19,0,0,0-7.45,6.88V52a7.19,7.19,0,0,0,7.45,6.88H41.26A7.18,7.18,0,0,0,48.7,52V18.09a7.18,7.18,0,0,0-7.44-6.88M45.36,52a4,4,0,0,1-4.1,3.79H18.75A4,4,0,0,1,14.64,52V18.09a4,4,0,0,1,4.11-3.79H41.26a4,4,0,0,1,4.1,3.79ZM38.93,16.93H21.07A3.21,3.21,0,0,0,17.74,20v9.26a3.22,3.22,0,0,0,3.33,3.09H38.93a3.22,3.22,0,0,0,3.34-3.09V20a3.22,3.22,0,0,0-3.34-3.09m2,12.35a1.94,1.94,0,0,1-2,1.85H21.07a1.94,1.94,0,0,1-2-1.85V20a1.94,1.94,0,0,1,2-1.85H38.93a1.94,1.94,0,0,1,2,1.85ZM26,45.62H20a1.82,1.82,0,0,0-1.89,1.75v3.68A1.82,1.82,0,0,0,20,52.8h6a1.83,1.83,0,0,0,1.89-1.75V47.37A1.83,1.83,0,0,0,26,45.62m.56,5.44a.54.54,0,0,1-.56.52H20a.54.54,0,0,1-.56-.52V47.37a.54.54,0,0,1,.56-.51h6a.54.54,0,0,1,.56.51ZM40,36.83H34a1.83,1.83,0,0,0-1.89,1.76v3.68A1.83,1.83,0,0,0,34,44h6a1.83,1.83,0,0,0,1.89-1.75V38.58A1.83,1.83,0,0,0,40,36.83m.56,5.44a.54.54,0,0,1-.56.52H34a.54.54,0,0,1-.56-.52V38.58a.54.54,0,0,1,.56-.52h6a.54.54,0,0,1,.56.52ZM40,45.62H34a1.83,1.83,0,0,0-1.89,1.75v3.68A1.83,1.83,0,0,0,34,52.8h6a1.83,1.83,0,0,0,1.89-1.75V47.37A1.83,1.83,0,0,0,40,45.62m.56,5.44a.54.54,0,0,1-.56.52H34a.53.53,0,0,1-.56-.52V47.37a.54.54,0,0,1,.56-.51h6a.54.54,0,0,1,.56.51ZM26,36.83H20a1.83,1.83,0,0,0-1.89,1.76v3.68A1.83,1.83,0,0,0,20,44h6a1.83,1.83,0,0,0,1.89-1.75V38.58A1.83,1.83,0,0,0,26,36.83m.56,5.44a.54.54,0,0,1-.56.52H20a.54.54,0,0,1-.56-.52V38.58a.55.55,0,0,1,.56-.52h6a.54.54,0,0,1,.56.52Zm11-37.94a2.05,2.05,0,0,1,2.12-2h1.39a2.06,2.06,0,0,1,2.12,2v5.86a8.92,8.92,0,0,1,1.33.38V4.33a3.33,3.33,0,0,0-3.46-3.2H39.69a3.33,3.33,0,0,0-3.45,3.2V10h1.33Z"/></svg>