<svg id="Layer_1" data-name="Layer 1" xmlns="http://www.w3.org/2000/svg" viewBox="0 0 60 60"><defs><style>.cls-1{fill:#b8c633;}</style></defs><title>Icons</title><path class="cls-1" d="M37.48,41.49A15.2,15.2,0,0,1,35.86,43a11.4,11.4,0,0,1-2.12,1.38,12.43,12.43,0,0,1-2.65,1,13.38,13.38,0,0,1-3.18.36,11.86,11.86,0,0,1-4-.66,9.08,9.08,0,0,1-3.16-1.88,8.68,8.68,0,0,1-2.07-3,9.71,9.71,0,0,1-.75-3.89,9.94,9.94,0,0,1,.84-4.17,8.85,8.85,0,0,1,2.37-3.11,10.67,10.67,0,0,1,3.66-2,15.19,15.19,0,0,1,4.72-.69,18.46,18.46,0,0,1,4.28.43,29,29,0,0,1,3.29,1h.13V26a11.5,11.5,0,0,0-.4-3.15,5.77,5.77,0,0,0-1.32-2.41,6,6,0,0,0-2.43-1.54,11.27,11.27,0,0,0-3.76-.54,21.88,21.88,0,0,0-4.49.44A29.22,29.22,0,0,0,20.64,20V15.76A15.59,15.59,0,0,1,22.52,15a20.52,20.52,0,0,1,2.25-.59,23.78,23.78,0,0,1,2.52-.38c.88-.08,1.76-.13,2.65-.13a16.57,16.57,0,0,1,5.51.82A10.59,10.59,0,0,1,39.32,17a9.13,9.13,0,0,1,2.28,3.58,13.87,13.87,0,0,1,.74,4.66V38.11a4.64,4.64,0,0,0,.53,2.51,2.23,2.23,0,0,0,2,.81,5.42,5.42,0,0,0,3.34-1.15,9.78,9.78,0,0,0,2.61-3.12,17.58,17.58,0,0,0,1.7-4.59A24.72,24.72,0,0,0,53.17,27a23.11,23.11,0,0,0-1.78-9.36,19.25,19.25,0,0,0-4.88-6.79,20.75,20.75,0,0,0-7.22-4.13,27.35,27.35,0,0,0-8.83-1.4,27.89,27.89,0,0,0-7.56,1,22.19,22.19,0,0,0-6,2.64,18.81,18.81,0,0,0-4.53,4.05A22.66,22.66,0,0,0,9.24,18.1a27.68,27.68,0,0,0-1.81,6,35,35,0,0,0-.6,6.46,29.7,29.7,0,0,0,1.54,9.76A20.36,20.36,0,0,0,20.67,53a29.2,29.2,0,0,0,10.72,1.81,52.21,52.21,0,0,0,5.49-.28c1.74-.19,3.38-.43,4.9-.74s2.92-.65,4.19-1a31.44,31.44,0,0,0,3.36-1.2V56c-1,.39-2.16.78-3.49,1.16s-2.8.72-4.39,1-3.27.53-5,.7-3.59.26-5.44.26a36.48,36.48,0,0,1-7.73-.8,30.53,30.53,0,0,1-7-2.4,26.65,26.65,0,0,1-5.94-4,24.87,24.87,0,0,1-4.66-5.51A26.74,26.74,0,0,1,2.58,39.4a31.71,31.71,0,0,1-1.1-8.58A35,35,0,0,1,3.54,18.48,26.8,26.8,0,0,1,9.41,9a26,26,0,0,1,9.2-6,32.38,32.38,0,0,1,12-2.13A32.74,32.74,0,0,1,41.86,2.72,25.84,25.84,0,0,1,50.68,8a23.8,23.8,0,0,1,5.78,8.14,26,26,0,0,1,2.07,10.51,26.9,26.9,0,0,1-1.1,8,18.67,18.67,0,0,1-3,6,13.35,13.35,0,0,1-4.57,3.81,12.53,12.53,0,0,1-5.72,1.33,8.83,8.83,0,0,1-2.55-.33,6.25,6.25,0,0,1-1.88-.89,5,5,0,0,1-1.28-1.34,6.7,6.7,0,0,1-.78-1.7Zm-.27-9.58-1.43-.4c-.49-.13-1-.25-1.57-.36s-1.15-.2-1.81-.28a18.88,18.88,0,0,0-2.17-.12,8.39,8.39,0,0,0-5.1,1.38,5,5,0,0,0-1.84,4.23,5.28,5.28,0,0,0,.43,2.21,4.47,4.47,0,0,0,1.17,1.57,4.8,4.8,0,0,0,1.75,1,7.22,7.22,0,0,0,2.16.31,9.35,9.35,0,0,0,2.45-.33,11.87,11.87,0,0,0,2.28-.87,12.79,12.79,0,0,0,2-1.27,17.39,17.39,0,0,0,1.7-1.47Z"/></svg>