<svg id="Layer_1" data-name="Layer 1" xmlns="http://www.w3.org/2000/svg" viewBox="0 0 182 60"><defs><style>.cls-1{fill:none;stroke:#333;}.cls-2{font-size:8.63px;fill:#333;font-family:FbSpoiler-Bold, Fb Spoiler;font-weight:700;}.cls-3,.cls-6{fill:#4d4d4d;}.cls-4,.cls-5{fill:#b8c633;}.cls-5,.cls-6{fill-rule:evenodd;}</style></defs><title>Icons</title><line class="cls-1" x1="134.34" y1="36.25" x2="174.3" y2="36.25"/><line class="cls-1" x1="62.83" y1="36.25" x2="128.46" y2="36.25"/><line class="cls-1" x1="48.67" y1="36.25" x2="56.71" y2="36.25"/><line class="cls-1" x1="9.79" y1="36.25" x2="41.83" y2="36.25"/><text class="cls-2" transform="translate(52.59 44.94)">ךלש קסעב ונלש תויעוצקמה</text><path class="cls-3" d="M9.78,34.5V19.25H25V34.5Zm11-12.6H14v10h6.71Z"/><path class="cls-3" d="M28.16,27.18V19.25h4.27v7.93Z"/><path class="cls-3" d="M69,34H64.19l3.6-12.08H57.34V19.25H73.08ZM57.63,37.81V26.4h4.24V37.81Z"/><path class="cls-3" d="M74.88,27.18V19.25h4.27v7.93Z"/><path class="cls-3" d="M82.28,27.18V19.25h4.27v7.93Z"/><path class="cls-3" d="M89.69,34.5V19.25H94V34.5Z"/><path class="cls-3" d="M104.38,34.5V21.9H96.19V19.25h12.43V34.5Z"/><path class="cls-3" d="M111.7,34.5V31.86h9.93v-10H116v5.4H111.7v-8h14.17V34.5Z"/><path class="cls-4" d="M140.56,34h-4.76l3.6-12.08H128.94V19.25h15.74Zm-11.32,3.83V26.4h4.24V37.81Z"/><path class="cls-4" d="M146.48,34.5V19.25h4.27V34.5Z"/><path class="cls-4" d="M161.17,34.5V21.9H153V19.25h12.43V34.5Z"/><path class="cls-4" d="M168.55,27.18V19.25h4.27v7.93Z"/><polygon class="cls-5" points="45.22 37.98 39.97 31.29 34.72 24.59 45.22 24.59 55.72 24.59 50.47 31.29 45.22 37.98"/><polygon class="cls-6" points="50.34 18.66 48.27 21.3 44.9 25.59 41.52 21.3 39.45 18.66 34.72 18.66 39.97 25.35 45.22 32.04 50.47 25.35 55.72 18.66 50.34 18.66"/></svg>