<svg id="Layer_1" data-name="Layer 1" xmlns="http://www.w3.org/2000/svg" viewBox="0 0 60 60"><defs><style>.cls-1{fill:#b8c633;}</style></defs><title>Icons</title><path class="cls-1" d="M6.4,13.15V46a5.52,5.52,0,0,0,1.23,3.46c.24,0,.5,0,.72,0a7.2,7.2,0,0,0,2.82-.56,4.61,4.61,0,0,1,0-1.32,157.51,157.51,0,0,0,0-35.57,4.89,4.89,0,0,1,1.65-4.3H11.54a5.27,5.27,0,0,0-5.13,5.4M16.3,53h-.14a12.05,12.05,0,0,0-1.55.26,12.32,12.32,0,0,0,1.51.74,10.84,10.84,0,0,0,3.26.75c-.48-.29-.9-.58-1.28-.84-1-.7-1.38-.91-1.79-.91M16.11,5.68a10.42,10.42,0,0,0-3.33,2.06h2.1a11.31,11.31,0,0,1,1.71-.87,9.19,9.19,0,0,1,7,0,11.46,11.46,0,0,1,1.73.87h2.09A10.91,10.91,0,0,0,16.11,5.68M53.91,7.74H27.41a4.92,4.92,0,0,1,1.65,4.32,157.49,157.49,0,0,0,0,35.57,4.77,4.77,0,0,1-1.15,3.77h.34l-.86.94.2.24.27.36-.45.06L27,53l-.66,0a9.49,9.49,0,0,1-6.2-2.1,6.62,6.62,0,0,0-3.82-1.55,4.64,4.64,0,0,0-.53,0,15.63,15.63,0,0,0-4.1,1A8.72,8.72,0,0,1,8.35,51a19.09,19.09,0,0,1-2.81-.25C3.92,50.55,3,50,3,49.32s.9-1.67,2.2-2.43V44.58C2.67,45.7,1.06,47.46,1,49.2c0,.89.27,3,4.27,3.62a20.73,20.73,0,0,0,3.12.27,10.63,10.63,0,0,0,4-.77A13.41,13.41,0,0,1,16,51.47l.3,0A4.74,4.74,0,0,1,19,52.64a11.7,11.7,0,0,0,7.39,2.46l.73,0c1.51-.07,2.43-.54,2.74-1.42a2.45,2.45,0,0,0-.55-2.26H53.91A5.28,5.28,0,0,0,59,46V13.15a5.28,5.28,0,0,0-5.13-5.4m-18.4,38a2.31,2.31,0,1,1,2.31-2.31,2.31,2.31,0,0,1-2.31,2.31m0-6.57a2.31,2.31,0,1,1,2.31-2.31,2.31,2.31,0,0,1-2.31,2.31m0-6.57a2.31,2.31,0,1,1,2.31-2.31,2.31,2.31,0,0,1-2.31,2.31m7.3,13.14a2.31,2.31,0,1,1,2.31-2.31,2.32,2.32,0,0,1-2.31,2.31m0-6.57a2.31,2.31,0,1,1,2.31-2.31,2.32,2.32,0,0,1-2.31,2.31m0-6.57a2.31,2.31,0,1,1,2.31-2.31,2.32,2.32,0,0,1-2.31,2.31m7.3,13.14a2.31,2.31,0,1,1,2.31-2.31,2.31,2.31,0,0,1-2.31,2.31m0-6.57a2.31,2.31,0,1,1,2.31-2.31,2.32,2.32,0,0,1-2.31,2.31m0-6.57a2.31,2.31,0,1,1,2.31-2.31,2.31,2.31,0,0,1-2.31,2.31m3.83-10.72a1.54,1.54,0,0,1-1.54,1.54H33.22a1.54,1.54,0,0,1-1.54-1.54v-7a1.54,1.54,0,0,1,1.54-1.54H52.4a1.54,1.54,0,0,1,1.54,1.54Zm-27-12.81H25.05c1.64,1.18,1.51,2.25,1.46,2.62a160.45,160.45,0,0,0,0,36.21A2.33,2.33,0,0,1,25.67,50H27.3a3.39,3.39,0,0,0,.49-2.25,158.48,158.48,0,0,1,0-35.89,3.5,3.5,0,0,0-.84-2.79m-11.79,0H13.27a3.49,3.49,0,0,0-.86,2.77,158.21,158.21,0,0,1,0,35.89,3.75,3.75,0,0,0,0,.75c.37-.11.79-.22,1.26-.32a1.55,1.55,0,0,1,0-.25,160.22,160.22,0,0,0,0-36.21c-.05-.39-.18-1.44,1.47-2.63"/></svg>